<svg width="97" height="114" viewBox="0 0 97 114" fill="none" xmlns="http://www.w3.org/2000/svg">
<path fill-rule="evenodd" clip-rule="evenodd" d="M37.8563 60.0693L56.0428 49.5693L79.2928 89.8395L79.5428 90.2725L79.5159 90.2881C80.1202 91.7186 79.917 93.5156 78.9276 95.3576C77.8318 97.3979 75.8613 99.3263 73.4496 100.719C71.0379 102.111 68.3826 102.853 66.0678 102.782C63.9778 102.718 62.32 101.996 61.3832 100.757L61.3563 100.773L61.1063 100.34L37.8563 60.0693Z" fill="#ABAEB0"/>
<circle cx="26.5" cy="26.5" r="26.5" transform="matrix(-0.866025 0.5 0.5 0.866025 45.8993 0)" fill="#D85549"/>
<path d="M58.1589 51.2343C37.1207 61.9951 17.4864 49.1207 10.299 41.3385C7.04898 35.7093 12.1243 19.5 22.9496 13.25C33.7749 7 51.1493 9.09327 59.3993 23.3827C65.9993 34.8142 61.3224 46.7136 58.1589 51.2343Z" fill="#E15A4C"/>
</svg>
