<svg width="78" height="112" viewBox="0 0 78 112" fill="none" xmlns="http://www.w3.org/2000/svg">
<path fill-rule="evenodd" clip-rule="evenodd" d="M27.8782 55.9408L48.1626 50.5056L60.1977 95.4212L60.3271 95.9041L60.2971 95.9122C60.5105 97.4503 59.8491 99.1335 58.4167 100.657C56.8301 102.344 54.4277 103.697 51.7378 104.417C49.0479 105.138 46.2909 105.168 44.0734 104.5C42.0713 103.897 40.6569 102.77 40.0727 101.331L40.0427 101.339L39.9132 100.856L27.8782 55.9408Z" fill="#ABAEB0"/>
<circle cx="26.5" cy="26.5" r="26.5" transform="matrix(-0.965926 0.258819 0.258819 0.965926 51.1941 0)" fill="#D85549"/>
<path d="M49.7756 52.6615C26.6691 57.6106 11.0359 40.0932 6.10766 30.7158C4.42533 24.4373 13.523 10.0939 25.5971 6.8587C37.6711 3.62347 53.9117 10.1422 58.1822 26.08C61.5986 38.8302 54.0013 49.1136 49.7756 52.6615Z" fill="#E15A4C"/>
</svg>
