<svg width="66" height="32" viewBox="0 0 66 32" fill="none" xmlns="http://www.w3.org/2000/svg">
<rect width="66" height="32" fill="black"/>
<rect x="1" width="65" height="31.5733" fill="#3A3E39"/>
<path d="M20.0742 12.3125V18H19.7578V12.3125H20.0742ZM23.6445 12.3125L21.1367 14.8906L19.9531 16.0078L19.957 15.6289L20.9414 14.6406L23.2227 12.3125H23.6445ZM23.4375 18L20.8711 14.9922L21.0625 14.7266L23.832 18H23.4375ZM28.9805 12.3125V18H28.6641L25.1484 12.8555V18H24.8281V12.3125H25.1484L28.6641 17.4492V12.3125H28.9805ZM34.168 17.7109V18H30.2148V17.7109H34.168ZM34.043 12.5391L30.3125 18H30.1055V17.7539L33.8281 12.3125H34.043V12.5391ZM33.8984 12.3125V12.5977H30.2383V12.3125H33.8984ZM35.7422 12.3125V18H35.4258V12.3125H35.7422ZM40.8828 17.7109V18H37.5664V17.7109H40.8828ZM37.707 12.3125V18H37.3906V12.3125H37.707ZM40.4844 14.9258V15.2188H37.5664V14.9258H40.4844ZM40.875 12.3125V12.6016H37.5664V12.3125H40.875ZM45.4375 17.7109V18H42.1211V17.7109H45.4375ZM42.2617 12.3125V18H41.9453V12.3125H42.2617ZM45.0391 14.9258V15.2188H42.1211V14.9258H45.0391ZM45.4297 12.3125V12.6016H42.1211V12.3125H45.4297Z" fill="white"/>
<path d="M24.5225 20.4286C24.5225 20.3863 24.5153 20.3485 24.501 20.3153C24.4867 20.2815 24.4629 20.2515 24.4297 20.2255C24.3971 20.1988 24.3542 20.174 24.3008 20.1512C24.2474 20.1285 24.1816 20.1063 24.1035 20.0848C24.0319 20.0653 23.9671 20.0441 23.9092 20.0214C23.8519 19.9979 23.8027 19.9712 23.7617 19.9413C23.7214 19.9113 23.6904 19.8759 23.6689 19.8348C23.6475 19.7932 23.6367 19.744 23.6367 19.6874C23.6367 19.6327 23.6484 19.5835 23.6719 19.5399C23.6953 19.4963 23.7282 19.4592 23.7705 19.4286C23.8135 19.3973 23.8636 19.3736 23.9209 19.3573C23.9788 19.3404 24.042 19.3319 24.1104 19.3319C24.2061 19.3319 24.2897 19.3501 24.3613 19.3866C24.4329 19.4224 24.4889 19.4722 24.5293 19.536C24.5697 19.5992 24.5898 19.6718 24.5898 19.7538H24.5107C24.5107 19.6867 24.4941 19.6268 24.4609 19.5741C24.4284 19.5214 24.3822 19.48 24.3223 19.4501C24.263 19.4195 24.1924 19.4042 24.1104 19.4042C24.0257 19.4042 23.9538 19.4172 23.8945 19.4432C23.8359 19.4693 23.7913 19.5038 23.7607 19.5468C23.7308 19.5891 23.7158 19.6353 23.7158 19.6854C23.7158 19.7212 23.7223 19.7548 23.7354 19.786C23.749 19.8173 23.7712 19.8459 23.8018 19.8719C23.833 19.898 23.875 19.9227 23.9277 19.9462C23.9811 19.969 24.0475 19.9911 24.127 20.0126C24.1999 20.0315 24.2653 20.0529 24.3232 20.077C24.3818 20.1005 24.432 20.1281 24.4736 20.16C24.5153 20.1919 24.5472 20.2297 24.5693 20.2733C24.5915 20.3169 24.6025 20.368 24.6025 20.4266C24.6025 20.4846 24.5902 20.5363 24.5654 20.5819C24.5407 20.6268 24.5062 20.6652 24.4619 20.6971C24.4183 20.7284 24.3669 20.7522 24.3076 20.7684C24.249 20.7847 24.1859 20.7928 24.1182 20.7928C24.0563 20.7928 23.9941 20.7854 23.9316 20.7704C23.8698 20.7554 23.8132 20.7313 23.7617 20.6981C23.7103 20.6649 23.6689 20.6213 23.6377 20.5673C23.6064 20.5132 23.5908 20.4475 23.5908 20.37H23.6699C23.6699 20.4364 23.6836 20.4924 23.7109 20.538C23.7383 20.5829 23.7741 20.6187 23.8184 20.6454C23.8626 20.6721 23.9108 20.6913 23.9629 20.703C24.0156 20.7147 24.0674 20.7206 24.1182 20.7206C24.1976 20.7206 24.2676 20.7085 24.3281 20.6844C24.3893 20.6597 24.4368 20.6255 24.4707 20.5819C24.5052 20.5376 24.5225 20.4865 24.5225 20.4286ZM24.7715 20.2635V20.2264C24.7715 20.149 24.7826 20.078 24.8047 20.0135C24.8275 19.9491 24.8594 19.8934 24.9004 19.8466C24.9414 19.799 24.9902 19.7622 25.0469 19.7362C25.1042 19.7102 25.1676 19.6971 25.2373 19.6971C25.307 19.6971 25.3704 19.7102 25.4277 19.7362C25.485 19.7622 25.5342 19.799 25.5752 19.8466C25.6169 19.8934 25.6488 19.9491 25.6709 20.0135C25.693 20.078 25.7041 20.149 25.7041 20.2264V20.2635C25.7041 20.341 25.693 20.412 25.6709 20.4764C25.6488 20.5409 25.6172 20.5969 25.5762 20.6444C25.5352 20.6913 25.486 20.7277 25.4287 20.7538C25.3721 20.7798 25.3089 20.7928 25.2393 20.7928C25.1689 20.7928 25.1051 20.7798 25.0479 20.7538C24.9912 20.7277 24.9421 20.6913 24.9004 20.6444C24.8594 20.5969 24.8275 20.5409 24.8047 20.4764C24.7826 20.412 24.7715 20.341 24.7715 20.2635ZM24.8496 20.2264V20.2635C24.8496 20.3247 24.8581 20.383 24.875 20.4384C24.8926 20.493 24.918 20.5419 24.9512 20.5848C24.9844 20.6272 25.0251 20.6607 25.0732 20.6854C25.1214 20.7095 25.1768 20.7216 25.2393 20.7216C25.3005 20.7216 25.3551 20.7095 25.4033 20.6854C25.4515 20.6607 25.4919 20.6272 25.5244 20.5848C25.5576 20.5419 25.5827 20.493 25.5996 20.4384C25.6172 20.383 25.626 20.3247 25.626 20.2635V20.2264C25.626 20.1665 25.6172 20.1093 25.5996 20.0546C25.5827 19.9999 25.5576 19.951 25.5244 19.9081C25.4912 19.8651 25.4505 19.8313 25.4023 19.8065C25.3542 19.7811 25.2992 19.7684 25.2373 19.7684C25.1755 19.7684 25.1204 19.7811 25.0723 19.8065C25.0247 19.8313 24.984 19.8651 24.9502 19.9081C24.917 19.951 24.8919 19.9999 24.875 20.0546C24.8581 20.1093 24.8496 20.1665 24.8496 20.2264ZM26.1143 20.7733H26.0371V19.5741C26.0371 19.5044 26.0485 19.4458 26.0713 19.3983C26.0947 19.3508 26.1279 19.3147 26.1709 19.2899C26.2145 19.2652 26.2666 19.2528 26.3271 19.2528C26.3473 19.2528 26.3682 19.2541 26.3896 19.2567C26.4111 19.2587 26.432 19.2629 26.4521 19.2694L26.4434 19.3387C26.4264 19.3342 26.4095 19.3309 26.3926 19.329C26.3763 19.3264 26.3558 19.3251 26.3311 19.3251C26.2861 19.3251 26.2474 19.3348 26.2148 19.3544C26.1829 19.3739 26.1582 19.4022 26.1406 19.4393C26.123 19.4758 26.1143 19.5207 26.1143 19.5741V20.7733ZM26.3828 19.7167V19.787H25.8564V19.7167H26.3828ZM26.9727 19.7167V19.787H26.4668V19.7167H26.9727ZM26.6621 19.4374H26.7402V20.5184C26.7402 20.5751 26.7471 20.618 26.7607 20.6473C26.7751 20.676 26.7936 20.6955 26.8164 20.7059C26.8398 20.7157 26.8649 20.7206 26.8916 20.7206C26.9105 20.7206 26.9277 20.7196 26.9434 20.7177C26.9596 20.7157 26.9759 20.7134 26.9922 20.7108L26.999 20.7792C26.9847 20.7837 26.9661 20.787 26.9434 20.7889C26.9206 20.7915 26.9004 20.7928 26.8828 20.7928C26.8385 20.7928 26.7998 20.7847 26.7666 20.7684C26.7334 20.7522 26.7077 20.7242 26.6895 20.6844C26.6712 20.6441 26.6621 20.5887 26.6621 20.5184V19.4374ZM27.5439 20.4911L27.7871 19.7167H27.8486L27.7842 19.9618L27.5234 20.7733H27.4609L27.5439 20.4911ZM27.2295 19.7167L27.4482 20.4921L27.5146 20.7733H27.4521L27.1455 19.7167H27.2295ZM28.2002 20.4911L28.416 19.7167H28.501L28.1934 20.7733H28.1309L28.2002 20.4911ZM27.8594 19.7167L28.1016 20.4882L28.1846 20.7733H28.1221L27.8574 19.9618L27.7969 19.7167H27.8594ZM29.4014 20.579V20.0331C29.4014 19.9777 29.3896 19.9302 29.3662 19.8905C29.3428 19.8508 29.3086 19.8205 29.2637 19.7997C29.2188 19.7782 29.1637 19.7675 29.0986 19.7675C29.0381 19.7675 28.9837 19.7782 28.9355 19.7997C28.888 19.8205 28.8506 19.8492 28.8232 19.8856C28.7959 19.9221 28.7822 19.9628 28.7822 20.0077L28.7041 20.0067C28.7041 19.9663 28.7135 19.9276 28.7324 19.8905C28.752 19.8534 28.7793 19.8205 28.8145 19.7919C28.8503 19.7626 28.8923 19.7395 28.9404 19.7225C28.9893 19.7056 29.0426 19.6971 29.1006 19.6971C29.1748 19.6971 29.2402 19.7098 29.2969 19.7352C29.3542 19.76 29.3988 19.7974 29.4307 19.8475C29.4626 19.8977 29.4785 19.9602 29.4785 20.035V20.5565C29.4785 20.5943 29.4811 20.6324 29.4863 20.6708C29.4915 20.7092 29.4987 20.7401 29.5078 20.7635V20.7733H29.4229C29.4157 20.7486 29.4102 20.7183 29.4062 20.6825C29.403 20.6467 29.4014 20.6122 29.4014 20.579ZM29.4268 20.1737L29.4287 20.2411H29.1709C29.1058 20.2411 29.0475 20.2473 28.9961 20.2596C28.9447 20.272 28.901 20.2896 28.8652 20.3124C28.8294 20.3352 28.8021 20.3622 28.7832 20.3934C28.7643 20.4247 28.7549 20.4598 28.7549 20.4989C28.7549 20.5393 28.7656 20.5764 28.7871 20.6102C28.8086 20.6441 28.8389 20.6711 28.8779 20.6913C28.917 20.7108 28.9622 20.7206 29.0137 20.7206C29.084 20.7206 29.1462 20.7085 29.2002 20.6844C29.2549 20.6597 29.3008 20.6265 29.3379 20.5848C29.375 20.5425 29.402 20.4937 29.4189 20.4384L29.4531 20.495C29.4421 20.5295 29.4248 20.5643 29.4014 20.5995C29.3779 20.6346 29.3477 20.6669 29.3105 20.6962C29.2734 20.7248 29.2298 20.7483 29.1797 20.7665C29.1296 20.7841 29.0726 20.7928 29.0088 20.7928C28.9417 20.7928 28.8831 20.7805 28.833 20.7557C28.7835 20.7303 28.7451 20.6958 28.7178 20.6522C28.6904 20.608 28.6768 20.5575 28.6768 20.5009C28.6768 20.452 28.6878 20.4074 28.71 20.3671C28.7321 20.3267 28.764 20.2922 28.8057 20.2635C28.848 20.2343 28.8991 20.2121 28.959 20.1971C29.0195 20.1815 29.0876 20.1737 29.1631 20.1737H29.4268ZM29.8857 19.8964V20.7733H29.8086V19.7167H29.8848L29.8857 19.8964ZM30.2881 19.7089L30.2832 19.7792C30.2715 19.7772 30.2598 19.7756 30.248 19.7743C30.2363 19.773 30.224 19.7723 30.2109 19.7723C30.1549 19.7723 30.1058 19.7834 30.0635 19.8055C30.0218 19.8277 29.9867 19.858 29.958 19.8964C29.93 19.9348 29.9089 19.9794 29.8945 20.0302C29.8802 20.0809 29.8727 20.1353 29.8721 20.1932L29.834 20.201C29.834 20.1288 29.8415 20.0621 29.8564 20.0009C29.8721 19.9397 29.8955 19.8863 29.9268 19.8407C29.958 19.7951 29.9974 19.76 30.0449 19.7352C30.0924 19.7098 30.1484 19.6971 30.2129 19.6971C30.2285 19.6971 30.2428 19.6984 30.2559 19.701C30.2689 19.703 30.2796 19.7056 30.2881 19.7089ZM30.8525 20.7928C30.7861 20.7928 30.7246 20.7802 30.668 20.7548C30.6113 20.7287 30.5618 20.6926 30.5195 20.6464C30.4772 20.5995 30.444 20.5441 30.4199 20.4803C30.3965 20.4165 30.3848 20.3466 30.3848 20.2704V20.2274C30.3848 20.1486 30.3965 20.077 30.4199 20.0126C30.444 19.9475 30.4766 19.8915 30.5176 19.8446C30.5586 19.7971 30.6058 19.7606 30.6592 19.7352C30.7132 19.7098 30.7708 19.6971 30.832 19.6971C30.8939 19.6971 30.9499 19.7085 31 19.7313C31.0501 19.7541 31.0931 19.786 31.1289 19.827C31.1647 19.868 31.1921 19.9169 31.2109 19.9735C31.2298 20.0302 31.2393 20.0927 31.2393 20.161V20.2264H30.4336V20.1552H31.1621V20.1425C31.1615 20.076 31.1478 20.0145 31.1211 19.9579C31.0951 19.9012 31.0576 19.8557 31.0088 19.8212C30.96 19.786 30.901 19.7684 30.832 19.7684C30.7767 19.7684 30.7262 19.7802 30.6807 19.8036C30.6357 19.827 30.597 19.8596 30.5645 19.9012C30.5319 19.9423 30.5068 19.9908 30.4893 20.0468C30.4717 20.1021 30.4629 20.1623 30.4629 20.2274V20.2704C30.4629 20.3329 30.4727 20.3915 30.4922 20.4462C30.5117 20.5009 30.5391 20.549 30.5742 20.5907C30.6094 20.6317 30.6507 20.6639 30.6982 20.6874C30.7458 20.7108 30.7979 20.7225 30.8545 20.7225C30.9157 20.7225 30.9717 20.7118 31.0225 20.6903C31.0732 20.6688 31.1195 20.6311 31.1611 20.577L31.2119 20.6151C31.1885 20.649 31.1602 20.6792 31.127 20.7059C31.0938 20.7326 31.0544 20.7538 31.0088 20.7694C30.9639 20.785 30.9118 20.7928 30.8525 20.7928ZM32.3818 20.7733H32.0449L32.0469 20.701H32.3818C32.484 20.701 32.5739 20.6773 32.6514 20.6298C32.7295 20.5822 32.7907 20.5165 32.835 20.4325C32.8792 20.3479 32.9014 20.2505 32.9014 20.1405V19.9813C32.9014 19.8993 32.8887 19.8241 32.8633 19.7557C32.8379 19.6874 32.8021 19.6285 32.7559 19.579C32.7103 19.5295 32.6559 19.4914 32.5928 19.4647C32.5296 19.4374 32.4606 19.4237 32.3857 19.4237H32.0391V19.3514H32.3857C32.471 19.3514 32.5498 19.3667 32.6221 19.3973C32.695 19.4273 32.7581 19.4703 32.8115 19.5262C32.8649 19.5816 32.9062 19.6483 32.9355 19.7264C32.9655 19.8039 32.9805 19.8899 32.9805 19.9843V20.1405C32.9805 20.2349 32.9655 20.3212 32.9355 20.3993C32.9062 20.4768 32.8646 20.5435 32.8105 20.5995C32.7572 20.6548 32.694 20.6978 32.6211 20.7284C32.5488 20.7583 32.4691 20.7733 32.3818 20.7733ZM32.0693 19.3514V20.7733H31.9902V19.3514H32.0693ZM33.665 20.7928C33.5986 20.7928 33.5371 20.7802 33.4805 20.7548C33.4238 20.7287 33.3743 20.6926 33.332 20.6464C33.2897 20.5995 33.2565 20.5441 33.2324 20.4803C33.209 20.4165 33.1973 20.3466 33.1973 20.2704V20.2274C33.1973 20.1486 33.209 20.077 33.2324 20.0126C33.2565 19.9475 33.2891 19.8915 33.3301 19.8446C33.3711 19.7971 33.4183 19.7606 33.4717 19.7352C33.5257 19.7098 33.5833 19.6971 33.6445 19.6971C33.7064 19.6971 33.7624 19.7085 33.8125 19.7313C33.8626 19.7541 33.9056 19.786 33.9414 19.827C33.9772 19.868 34.0046 19.9169 34.0234 19.9735C34.0423 20.0302 34.0518 20.0927 34.0518 20.161V20.2264H33.2461V20.1552H33.9746V20.1425C33.974 20.076 33.9603 20.0145 33.9336 19.9579C33.9076 19.9012 33.8701 19.8557 33.8213 19.8212C33.7725 19.786 33.7135 19.7684 33.6445 19.7684C33.5892 19.7684 33.5387 19.7802 33.4932 19.8036C33.4482 19.827 33.4095 19.8596 33.377 19.9012C33.3444 19.9423 33.3193 19.9908 33.3018 20.0468C33.2842 20.1021 33.2754 20.1623 33.2754 20.2274V20.2704C33.2754 20.3329 33.2852 20.3915 33.3047 20.4462C33.3242 20.5009 33.3516 20.549 33.3867 20.5907C33.4219 20.6317 33.4632 20.6639 33.5107 20.6874C33.5583 20.7108 33.6104 20.7225 33.667 20.7225C33.7282 20.7225 33.7842 20.7118 33.835 20.6903C33.8857 20.6688 33.932 20.6311 33.9736 20.577L34.0244 20.6151C34.001 20.649 33.9727 20.6792 33.9395 20.7059C33.9062 20.7326 33.8669 20.7538 33.8213 20.7694C33.7764 20.785 33.7243 20.7928 33.665 20.7928ZM34.585 20.6913L34.9541 19.7167H35.0361L34.6309 20.7733H34.5674L34.585 20.6913ZM34.2393 19.7167L34.6104 20.6932L34.627 20.7733H34.5625L34.1572 19.7167H34.2393ZM35.6162 20.7928C35.5498 20.7928 35.4883 20.7802 35.4316 20.7548C35.375 20.7287 35.3255 20.6926 35.2832 20.6464C35.2409 20.5995 35.2077 20.5441 35.1836 20.4803C35.1602 20.4165 35.1484 20.3466 35.1484 20.2704V20.2274C35.1484 20.1486 35.1602 20.077 35.1836 20.0126C35.2077 19.9475 35.2402 19.8915 35.2812 19.8446C35.3223 19.7971 35.3695 19.7606 35.4229 19.7352C35.4769 19.7098 35.5345 19.6971 35.5957 19.6971C35.6576 19.6971 35.7135 19.7085 35.7637 19.7313C35.8138 19.7541 35.8568 19.786 35.8926 19.827C35.9284 19.868 35.9557 19.9169 35.9746 19.9735C35.9935 20.0302 36.0029 20.0927 36.0029 20.161V20.2264H35.1973V20.1552H35.9258V20.1425C35.9251 20.076 35.9115 20.0145 35.8848 19.9579C35.8587 19.9012 35.8213 19.8557 35.7725 19.8212C35.7236 19.786 35.6647 19.7684 35.5957 19.7684C35.5404 19.7684 35.4899 19.7802 35.4443 19.8036C35.3994 19.827 35.3607 19.8596 35.3281 19.9012C35.2956 19.9423 35.2705 19.9908 35.2529 20.0468C35.2354 20.1021 35.2266 20.1623 35.2266 20.2274V20.2704C35.2266 20.3329 35.2363 20.3915 35.2559 20.4462C35.2754 20.5009 35.3027 20.549 35.3379 20.5907C35.373 20.6317 35.4144 20.6639 35.4619 20.6874C35.5094 20.7108 35.5615 20.7225 35.6182 20.7225C35.6794 20.7225 35.7354 20.7118 35.7861 20.6903C35.8369 20.6688 35.8831 20.6311 35.9248 20.577L35.9756 20.6151C35.9521 20.649 35.9238 20.6792 35.8906 20.7059C35.8574 20.7326 35.818 20.7538 35.7725 20.7694C35.7275 20.785 35.6755 20.7928 35.6162 20.7928ZM36.335 19.2733V20.7733H36.2568V19.2733H36.335ZM36.5977 20.2635V20.2264C36.5977 20.149 36.6087 20.078 36.6309 20.0135C36.6536 19.9491 36.6855 19.8934 36.7266 19.8466C36.7676 19.799 36.8164 19.7622 36.873 19.7362C36.9303 19.7102 36.9938 19.6971 37.0635 19.6971C37.1331 19.6971 37.1966 19.7102 37.2539 19.7362C37.3112 19.7622 37.3604 19.799 37.4014 19.8466C37.443 19.8934 37.4749 19.9491 37.4971 20.0135C37.5192 20.078 37.5303 20.149 37.5303 20.2264V20.2635C37.5303 20.341 37.5192 20.412 37.4971 20.4764C37.4749 20.5409 37.4434 20.5969 37.4023 20.6444C37.3613 20.6913 37.3122 20.7277 37.2549 20.7538C37.1982 20.7798 37.1351 20.7928 37.0654 20.7928C36.9951 20.7928 36.9313 20.7798 36.874 20.7538C36.8174 20.7277 36.7682 20.6913 36.7266 20.6444C36.6855 20.5969 36.6536 20.5409 36.6309 20.4764C36.6087 20.412 36.5977 20.341 36.5977 20.2635ZM36.6758 20.2264V20.2635C36.6758 20.3247 36.6842 20.383 36.7012 20.4384C36.7188 20.493 36.7441 20.5419 36.7773 20.5848C36.8105 20.6272 36.8512 20.6607 36.8994 20.6854C36.9476 20.7095 37.0029 20.7216 37.0654 20.7216C37.1266 20.7216 37.1813 20.7095 37.2295 20.6854C37.2777 20.6607 37.318 20.6272 37.3506 20.5848C37.3838 20.5419 37.4089 20.493 37.4258 20.4384C37.4434 20.383 37.4521 20.3247 37.4521 20.2635V20.2264C37.4521 20.1665 37.4434 20.1093 37.4258 20.0546C37.4089 19.9999 37.3838 19.951 37.3506 19.9081C37.3174 19.8651 37.2767 19.8313 37.2285 19.8065C37.1803 19.7811 37.1253 19.7684 37.0635 19.7684C37.0016 19.7684 36.9466 19.7811 36.8984 19.8065C36.8509 19.8313 36.8102 19.8651 36.7764 19.9081C36.7432 19.951 36.7181 19.9999 36.7012 20.0546C36.6842 20.1093 36.6758 20.1665 36.6758 20.2264ZM37.8574 19.9198V21.1796H37.7793V19.7167H37.8545L37.8574 19.9198ZM38.6055 20.2343V20.2548C38.6055 20.3348 38.5964 20.4078 38.5781 20.4735C38.5605 20.5393 38.5345 20.5959 38.5 20.6434C38.4661 20.691 38.4245 20.7277 38.375 20.7538C38.3255 20.7798 38.2692 20.7928 38.2061 20.7928C38.1455 20.7928 38.0911 20.7841 38.043 20.7665C37.9948 20.7483 37.9531 20.7229 37.918 20.6903C37.8828 20.6578 37.8545 20.6206 37.833 20.579C37.8115 20.5367 37.7965 20.4914 37.7881 20.4432V20.076C37.7992 20.0207 37.8158 19.9703 37.8379 19.9247C37.8607 19.8785 37.889 19.8384 37.9229 19.8046C37.9574 19.7701 37.998 19.7437 38.0449 19.7255C38.0918 19.7066 38.1449 19.6971 38.2041 19.6971C38.2673 19.6971 38.3236 19.7098 38.373 19.7352C38.4232 19.76 38.4655 19.7958 38.5 19.8427C38.5345 19.8889 38.5605 19.9452 38.5781 20.0116C38.5964 20.0774 38.6055 20.1516 38.6055 20.2343ZM38.5264 20.2548V20.2343C38.5264 20.1678 38.5195 20.1063 38.5059 20.0497C38.4928 19.993 38.4727 19.9439 38.4453 19.9022C38.418 19.8606 38.3835 19.828 38.3418 19.8046C38.3001 19.7811 38.251 19.7694 38.1943 19.7694C38.1325 19.7694 38.0801 19.7798 38.0371 19.8007C37.9941 19.8208 37.9587 19.8472 37.9307 19.8798C37.9033 19.9123 37.8822 19.9475 37.8672 19.9852C37.8522 20.0223 37.8411 20.0575 37.834 20.0907V20.4374C37.8457 20.4895 37.8665 20.537 37.8965 20.58C37.9264 20.6229 37.9661 20.6574 38.0156 20.6835C38.0658 20.7089 38.126 20.7216 38.1963 20.7216C38.2529 20.7216 38.3018 20.7098 38.3428 20.6864C38.3838 20.663 38.418 20.6304 38.4453 20.5887C38.4727 20.5471 38.4928 20.4979 38.5059 20.4413C38.5195 20.384 38.5264 20.3218 38.5264 20.2548ZM39.2744 20.7928C39.208 20.7928 39.1465 20.7802 39.0898 20.7548C39.0332 20.7287 38.9837 20.6926 38.9414 20.6464C38.8991 20.5995 38.8659 20.5441 38.8418 20.4803C38.8184 20.4165 38.8066 20.3466 38.8066 20.2704V20.2274C38.8066 20.1486 38.8184 20.077 38.8418 20.0126C38.8659 19.9475 38.8984 19.8915 38.9395 19.8446C38.9805 19.7971 39.0277 19.7606 39.0811 19.7352C39.1351 19.7098 39.1927 19.6971 39.2539 19.6971C39.3158 19.6971 39.3717 19.7085 39.4219 19.7313C39.472 19.7541 39.515 19.786 39.5508 19.827C39.5866 19.868 39.6139 19.9169 39.6328 19.9735C39.6517 20.0302 39.6611 20.0927 39.6611 20.161V20.2264H38.8555V20.1552H39.584V20.1425C39.5833 20.076 39.5697 20.0145 39.543 19.9579C39.5169 19.9012 39.4795 19.8557 39.4307 19.8212C39.3818 19.786 39.3229 19.7684 39.2539 19.7684C39.1986 19.7684 39.1481 19.7802 39.1025 19.8036C39.0576 19.827 39.0189 19.8596 38.9863 19.9012C38.9538 19.9423 38.9287 19.9908 38.9111 20.0468C38.8936 20.1021 38.8848 20.1623 38.8848 20.2274V20.2704C38.8848 20.3329 38.8945 20.3915 38.9141 20.4462C38.9336 20.5009 38.9609 20.549 38.9961 20.5907C39.0312 20.6317 39.0726 20.6639 39.1201 20.6874C39.1676 20.7108 39.2197 20.7225 39.2764 20.7225C39.3376 20.7225 39.3936 20.7118 39.4443 20.6903C39.4951 20.6688 39.5413 20.6311 39.583 20.577L39.6338 20.6151C39.6104 20.649 39.582 20.6792 39.5488 20.7059C39.5156 20.7326 39.4762 20.7538 39.4307 20.7694C39.3857 20.785 39.3337 20.7928 39.2744 20.7928ZM39.9795 19.8964V20.7733H39.9023V19.7167H39.9785L39.9795 19.8964ZM40.3818 19.7089L40.377 19.7792C40.3652 19.7772 40.3535 19.7756 40.3418 19.7743C40.3301 19.773 40.3177 19.7723 40.3047 19.7723C40.2487 19.7723 40.1995 19.7834 40.1572 19.8055C40.1156 19.8277 40.0804 19.858 40.0518 19.8964C40.0238 19.9348 40.0026 19.9794 39.9883 20.0302C39.974 20.0809 39.9665 20.1353 39.9658 20.1932L39.9277 20.201C39.9277 20.1288 39.9352 20.0621 39.9502 20.0009C39.9658 19.9397 39.9893 19.8863 40.0205 19.8407C40.0518 19.7951 40.0911 19.76 40.1387 19.7352C40.1862 19.7098 40.2422 19.6971 40.3066 19.6971C40.3223 19.6971 40.3366 19.6984 40.3496 19.701C40.3626 19.703 40.3734 19.7056 40.3818 19.7089Z" fill="white"/>
</svg>
