<svg width="507" height="15" viewBox="0 0 507 15" fill="none" xmlns="http://www.w3.org/2000/svg">
<path fill-rule="evenodd" clip-rule="evenodd" d="M507 0H505V9H504V11H503V12H501V13H6V12H4V11H3V9H2V0H0V9H1V11H2V13H4V14H6V15H501V14H503V13H505V11H506V9H507V0Z" fill="#B1B1B1"/>
<rect width="2" height="2" transform="matrix(-1 0 0 1 2 0)" fill="#7F7F7F"/>
<rect width="2" height="2" transform="matrix(-1 0 0 1 6 12)" fill="#7F7F7F"/>
<rect width="1" height="2" transform="matrix(-1 0 0 1 4 11)" fill="#7F7F7F"/>
<rect width="2" height="3" transform="matrix(-1 0 0 1 2 5)" fill="#989898"/>
<rect width="3" height="2" transform="matrix(-1 0 0 1 20 13)" fill="#7F7F7F"/>
<rect width="3" height="2" transform="matrix(-1 0 0 1 34 13)" fill="#7F7F7F"/>
<rect width="3" height="2" transform="matrix(-1 0 0 1 48 13)" fill="#7F7F7F"/>
<rect width="3" height="2" transform="matrix(-1 0 0 1 62 13)" fill="#7F7F7F"/>
<rect width="3" height="2" transform="matrix(-1 0 0 1 76 13)" fill="#7F7F7F"/>
<rect width="3" height="2" transform="matrix(-1 0 0 1 90 13)" fill="#7F7F7F"/>
<rect width="3" height="2" transform="matrix(-1 0 0 1 104 13)" fill="#7F7F7F"/>
<rect width="3" height="2" transform="matrix(-1 0 0 1 118 13)" fill="#7F7F7F"/>
<rect width="3" height="2" transform="matrix(-1 0 0 1 132 13)" fill="#7F7F7F"/>
<rect width="3" height="2" transform="matrix(-1 0 0 1 13 13)" fill="#989898"/>
<rect width="3" height="2" transform="matrix(-1 0 0 1 27 13)" fill="#989898"/>
<rect width="3" height="2" transform="matrix(-1 0 0 1 41 13)" fill="#989898"/>
<rect width="3" height="2" transform="matrix(-1 0 0 1 55 13)" fill="#989898"/>
<rect width="3" height="2" transform="matrix(-1 0 0 1 69 13)" fill="#989898"/>
<rect width="3" height="2" transform="matrix(-1 0 0 1 83 13)" fill="#989898"/>
<rect width="3" height="2" transform="matrix(-1 0 0 1 97 13)" fill="#989898"/>
<rect width="3" height="2" transform="matrix(-1 0 0 1 111 13)" fill="#989898"/>
<rect width="3" height="2" transform="matrix(-1 0 0 1 125 13)" fill="#989898"/>
<rect width="3" height="2" transform="matrix(-1 0 0 1 146 13)" fill="#7F7F7F"/>
<rect width="3" height="2" transform="matrix(-1 0 0 1 160 13)" fill="#7F7F7F"/>
<rect width="3" height="2" transform="matrix(-1 0 0 1 174 13)" fill="#7F7F7F"/>
<rect width="3" height="2" transform="matrix(-1 0 0 1 188 13)" fill="#7F7F7F"/>
<rect width="3" height="2" transform="matrix(-1 0 0 1 202 13)" fill="#7F7F7F"/>
<rect width="3" height="2" transform="matrix(-1 0 0 1 216 13)" fill="#7F7F7F"/>
<rect width="3" height="2" transform="matrix(-1 0 0 1 230 13)" fill="#7F7F7F"/>
<rect width="3" height="2" transform="matrix(-1 0 0 1 244 13)" fill="#7F7F7F"/>
<rect width="3" height="2" transform="matrix(-1 0 0 1 258 13)" fill="#7F7F7F"/>
<rect width="3" height="2" transform="matrix(-1 0 0 1 139 13)" fill="#989898"/>
<rect width="3" height="2" transform="matrix(-1 0 0 1 153 13)" fill="#989898"/>
<rect width="3" height="2" transform="matrix(-1 0 0 1 167 13)" fill="#989898"/>
<rect width="3" height="2" transform="matrix(-1 0 0 1 181 13)" fill="#989898"/>
<rect width="3" height="2" transform="matrix(-1 0 0 1 195 13)" fill="#989898"/>
<rect width="3" height="2" transform="matrix(-1 0 0 1 209 13)" fill="#989898"/>
<rect width="3" height="2" transform="matrix(-1 0 0 1 223 13)" fill="#989898"/>
<rect width="3" height="2" transform="matrix(-1 0 0 1 237 13)" fill="#989898"/>
<rect width="3" height="2" transform="matrix(-1 0 0 1 251 13)" fill="#989898"/>
<rect width="3" height="2" transform="matrix(-1 0 0 1 272 13)" fill="#7F7F7F"/>
<rect width="3" height="2" transform="matrix(-1 0 0 1 286 13)" fill="#7F7F7F"/>
<rect width="3" height="2" transform="matrix(-1 0 0 1 300 13)" fill="#7F7F7F"/>
<rect width="3" height="2" transform="matrix(-1 0 0 1 314 13)" fill="#7F7F7F"/>
<rect width="3" height="2" transform="matrix(-1 0 0 1 328 13)" fill="#7F7F7F"/>
<rect width="3" height="2" transform="matrix(-1 0 0 1 342 13)" fill="#7F7F7F"/>
<rect width="3" height="2" transform="matrix(-1 0 0 1 356 13)" fill="#7F7F7F"/>
<rect width="3" height="2" transform="matrix(-1 0 0 1 370 13)" fill="#7F7F7F"/>
<rect width="3" height="2" transform="matrix(-1 0 0 1 384 13)" fill="#7F7F7F"/>
<rect width="3" height="2" transform="matrix(-1 0 0 1 265 13)" fill="#989898"/>
<rect width="3" height="2" transform="matrix(-1 0 0 1 279 13)" fill="#989898"/>
<rect width="3" height="2" transform="matrix(-1 0 0 1 293 13)" fill="#989898"/>
<rect width="3" height="2" transform="matrix(-1 0 0 1 307 13)" fill="#989898"/>
<rect width="3" height="2" transform="matrix(-1 0 0 1 321 13)" fill="#989898"/>
<rect width="3" height="2" transform="matrix(-1 0 0 1 335 13)" fill="#989898"/>
<rect width="3" height="2" transform="matrix(-1 0 0 1 349 13)" fill="#989898"/>
<rect width="3" height="2" transform="matrix(-1 0 0 1 363 13)" fill="#989898"/>
<rect width="3" height="2" transform="matrix(-1 0 0 1 377 13)" fill="#989898"/>
<rect width="3" height="2" transform="matrix(-1 0 0 1 398 13)" fill="#7F7F7F"/>
<rect width="3" height="2" transform="matrix(-1 0 0 1 412 13)" fill="#7F7F7F"/>
<rect width="3" height="2" transform="matrix(-1 0 0 1 426 13)" fill="#7F7F7F"/>
<rect width="3" height="2" transform="matrix(-1 0 0 1 440 13)" fill="#7F7F7F"/>
<rect width="3" height="2" transform="matrix(-1 0 0 1 454 13)" fill="#7F7F7F"/>
<rect width="3" height="2" transform="matrix(-1 0 0 1 468 13)" fill="#7F7F7F"/>
<rect width="3" height="2" transform="matrix(-1 0 0 1 482 13)" fill="#7F7F7F"/>
<rect width="3" height="2" transform="matrix(-1 0 0 1 496 13)" fill="#7F7F7F"/>
<rect width="1" height="2" transform="matrix(-1 0 0 1 506 9)" fill="#7F7F7F"/>
<rect width="2" height="2" transform="matrix(-1 0 0 1 507 7)" fill="#7F7F7F"/>
<rect width="3" height="2" transform="matrix(-1 0 0 1 391 13)" fill="#989898"/>
<rect width="3" height="2" transform="matrix(-1 0 0 1 405 13)" fill="#989898"/>
<rect width="3" height="2" transform="matrix(-1 0 0 1 419 13)" fill="#989898"/>
<rect width="3" height="2" transform="matrix(-1 0 0 1 433 13)" fill="#989898"/>
<rect width="3" height="2" transform="matrix(-1 0 0 1 447 13)" fill="#989898"/>
<rect width="3" height="2" transform="matrix(-1 0 0 1 461 13)" fill="#989898"/>
<rect width="3" height="2" transform="matrix(-1 0 0 1 475 13)" fill="#989898"/>
<rect width="3" height="2" transform="matrix(-1 0 0 1 489 13)" fill="#989898"/>
<rect width="1" height="2" transform="matrix(-1 0 0 1 501 13)" fill="#989898"/>
<rect width="2" height="2" transform="matrix(-1 0 0 1 503 12)" fill="#989898"/>
<rect width="2" height="3" transform="matrix(-1 0 0 1 507 0)" fill="#989898"/>
</svg>
