<svg width="507" height="15" viewBox="0 0 507 15" fill="none" xmlns="http://www.w3.org/2000/svg">
<path fill-rule="evenodd" clip-rule="evenodd" d="M0 0H2V9H3V11H4V12H6V13H501V12H503V11H504V9H505V0H507V9H506V11H505V13H503V14H501V15H6V14H4V13H2V11H1V9H0V0Z" fill="#B1B1B1"/>
<rect x="505" width="2" height="2" fill="#7F7F7F"/>
<rect x="501" y="12" width="2" height="2" fill="#7F7F7F"/>
<rect x="503" y="11" width="1" height="2" fill="#7F7F7F"/>
<rect x="505" y="5" width="2" height="3" fill="#989898"/>
<rect x="487" y="13" width="3" height="2" fill="#7F7F7F"/>
<rect x="473" y="13" width="3" height="2" fill="#7F7F7F"/>
<rect x="459" y="13" width="3" height="2" fill="#7F7F7F"/>
<rect x="445" y="13" width="3" height="2" fill="#7F7F7F"/>
<rect x="431" y="13" width="3" height="2" fill="#7F7F7F"/>
<rect x="417" y="13" width="3" height="2" fill="#7F7F7F"/>
<rect x="403" y="13" width="3" height="2" fill="#7F7F7F"/>
<rect x="389" y="13" width="3" height="2" fill="#7F7F7F"/>
<rect x="375" y="13" width="3" height="2" fill="#7F7F7F"/>
<rect x="494" y="13" width="3" height="2" fill="#989898"/>
<rect x="480" y="13" width="3" height="2" fill="#989898"/>
<rect x="466" y="13" width="3" height="2" fill="#989898"/>
<rect x="452" y="13" width="3" height="2" fill="#989898"/>
<rect x="438" y="13" width="3" height="2" fill="#989898"/>
<rect x="424" y="13" width="3" height="2" fill="#989898"/>
<rect x="410" y="13" width="3" height="2" fill="#989898"/>
<rect x="396" y="13" width="3" height="2" fill="#989898"/>
<rect x="382" y="13" width="3" height="2" fill="#989898"/>
<rect x="361" y="13" width="3" height="2" fill="#7F7F7F"/>
<rect x="347" y="13" width="3" height="2" fill="#7F7F7F"/>
<rect x="333" y="13" width="3" height="2" fill="#7F7F7F"/>
<rect x="319" y="13" width="3" height="2" fill="#7F7F7F"/>
<rect x="305" y="13" width="3" height="2" fill="#7F7F7F"/>
<rect x="291" y="13" width="3" height="2" fill="#7F7F7F"/>
<rect x="277" y="13" width="3" height="2" fill="#7F7F7F"/>
<rect x="263" y="13" width="3" height="2" fill="#7F7F7F"/>
<rect x="249" y="13" width="3" height="2" fill="#7F7F7F"/>
<rect x="368" y="13" width="3" height="2" fill="#989898"/>
<rect x="354" y="13" width="3" height="2" fill="#989898"/>
<rect x="340" y="13" width="3" height="2" fill="#989898"/>
<rect x="326" y="13" width="3" height="2" fill="#989898"/>
<rect x="312" y="13" width="3" height="2" fill="#989898"/>
<rect x="298" y="13" width="3" height="2" fill="#989898"/>
<rect x="284" y="13" width="3" height="2" fill="#989898"/>
<rect x="270" y="13" width="3" height="2" fill="#989898"/>
<rect x="256" y="13" width="3" height="2" fill="#989898"/>
<rect x="235" y="13" width="3" height="2" fill="#7F7F7F"/>
<rect x="221" y="13" width="3" height="2" fill="#7F7F7F"/>
<rect x="207" y="13" width="3" height="2" fill="#7F7F7F"/>
<rect x="193" y="13" width="3" height="2" fill="#7F7F7F"/>
<rect x="179" y="13" width="3" height="2" fill="#7F7F7F"/>
<rect x="165" y="13" width="3" height="2" fill="#7F7F7F"/>
<rect x="151" y="13" width="3" height="2" fill="#7F7F7F"/>
<rect x="137" y="13" width="3" height="2" fill="#7F7F7F"/>
<rect x="123" y="13" width="3" height="2" fill="#7F7F7F"/>
<rect x="242" y="13" width="3" height="2" fill="#989898"/>
<rect x="228" y="13" width="3" height="2" fill="#989898"/>
<rect x="214" y="13" width="3" height="2" fill="#989898"/>
<rect x="200" y="13" width="3" height="2" fill="#989898"/>
<rect x="186" y="13" width="3" height="2" fill="#989898"/>
<rect x="172" y="13" width="3" height="2" fill="#989898"/>
<rect x="158" y="13" width="3" height="2" fill="#989898"/>
<rect x="144" y="13" width="3" height="2" fill="#989898"/>
<rect x="130" y="13" width="3" height="2" fill="#989898"/>
<rect x="109" y="13" width="3" height="2" fill="#7F7F7F"/>
<rect x="95" y="13" width="3" height="2" fill="#7F7F7F"/>
<rect x="81" y="13" width="3" height="2" fill="#7F7F7F"/>
<rect x="67" y="13" width="3" height="2" fill="#7F7F7F"/>
<rect x="53" y="13" width="3" height="2" fill="#7F7F7F"/>
<rect x="39" y="13" width="3" height="2" fill="#7F7F7F"/>
<rect x="25" y="13" width="3" height="2" fill="#7F7F7F"/>
<rect x="11" y="13" width="3" height="2" fill="#7F7F7F"/>
<rect x="1" y="9" width="1" height="2" fill="#7F7F7F"/>
<rect y="7" width="2" height="2" fill="#7F7F7F"/>
<rect x="116" y="13" width="3" height="2" fill="#989898"/>
<rect x="102" y="13" width="3" height="2" fill="#989898"/>
<rect x="88" y="13" width="3" height="2" fill="#989898"/>
<rect x="74" y="13" width="3" height="2" fill="#989898"/>
<rect x="60" y="13" width="3" height="2" fill="#989898"/>
<rect x="46" y="13" width="3" height="2" fill="#989898"/>
<rect x="32" y="13" width="3" height="2" fill="#989898"/>
<rect x="18" y="13" width="3" height="2" fill="#989898"/>
<rect x="6" y="13" width="1" height="2" fill="#989898"/>
<rect x="4" y="12" width="2" height="2" fill="#989898"/>
<rect width="2" height="3" fill="#989898"/>
</svg>
