<svg width="100" height="121" viewBox="0 0 100 121" fill="none" xmlns="http://www.w3.org/2000/svg">
<path d="M3 5C3 2.23857 5.23858 0 8 0H85C93.2843 0 100 6.71573 100 15V106C100 114.284 93.2843 121 85 121H8C5.23858 121 3 118.761 3 116V5Z" fill="#805A46"/>
<rect x="68" width="29" height="121" fill="#E7E7E7"/>
<path d="M0 5C0 2.23857 2.23858 0 5 0H78C86.2843 0 93 6.71573 93 15V106C93 114.284 86.2843 121 78 121H5C2.23858 121 0 118.761 0 116V5Z" fill="#8D6A57"/>
<path d="M0 5C0 2.23857 2.23858 0 5 0H78C86.2843 0 93 6.71573 93 15V106C93 114.284 86.2843 121 78 121H5C2.23858 121 0 118.761 0 116V5Z" fill="#8D6A57"/>
<path d="M0 5C0 2.23857 2.23858 0 5 0H78C86.2843 0 93 6.71573 93 15V106C93 114.284 86.2843 121 78 121H5C2.23858 121 0 118.761 0 116V5Z" fill="#8D6A57"/>
<path d="M0 5C0 2.23857 2.23858 0 5 0H78C86.2843 0 93 6.71573 93 15V106C93 114.284 86.2843 121 78 121H5C2.23858 121 0 118.761 0 116V5Z" fill="#8D6A57"/>
<path d="M0 5C0 2.23857 2.23858 0 5 0H78C86.2843 0 93 6.71573 93 15V106C93 114.284 86.2843 121 78 121H5C2.23858 121 0 118.761 0 116V5Z" fill="#8D6A57"/>
<path d="M0 5C0 2.23857 2.23858 0 5 0H78C86.2843 0 93 6.71573 93 15V106C93 114.284 86.2843 121 78 121H5C2.23858 121 0 118.761 0 116V5Z" fill="#8D6A57"/>
<rect x="75" width="1" height="121" fill="#7F5A46"/>
</svg>
