<svg width="121" height="188" viewBox="0 0 121 188" fill="none" xmlns="http://www.w3.org/2000/svg">
<rect x="46.5789" y="1.42493" width="8" height="68" transform="rotate(-3.58286 46.5789 1.42493)" fill="#E0F6FF"/>
<path d="M106.922 122.214L62.539 85.0764C52.2142 81.8086 52.3569 90.3382 53.7189 95.0115L99.0297 124.442L86.6831 178.202L91.4184 181.173L106.922 122.214Z" fill="#E0F6FF"/>
<path d="M17.0255 135.169L49.1155 87.0111C58.0974 80.9609 60.369 89.1837 60.3821 94.0513L25.2256 135.079L52.2498 183.164L48.546 187.351L17.0255 135.169Z" fill="#E0F6FF"/>
<path d="M49.8302 69.3545L59.8107 68.7296L61.8086 84.6358L49.832 85.3857L49.8302 69.3545Z" fill="#949494"/>
<circle cx="56.8145" cy="92.249" r="10" transform="rotate(-8.20085 56.8145 92.249)" fill="#BCBCBC"/>
<path d="M27.9999 0H73.9999V0C73.9999 8.28427 67.2841 15 58.9999 15H42.9999C34.7156 15 27.9999 8.28427 27.9999 0V0Z" fill="#BCBCBC"/>
</svg>
