<svg width="122" height="186" viewBox="0 0 122 186" fill="none" xmlns="http://www.w3.org/2000/svg">
<rect x="56.9998" y="1" width="8" height="68" fill="#E0F6FF"/>
<path d="M106.32 129.806L67.6888 86.7175C57.9358 82.0103 56.8603 90.473 57.5417 95.2928L98.1911 130.886L78.3023 182.334L82.5654 185.95L106.32 129.806Z" fill="#E0F6FF"/>
<path d="M15.4952 129.806L54.1266 86.7175C63.8797 82.0103 64.9551 90.473 64.2737 95.2928L23.6244 130.886L43.5131 182.334L39.25 185.95L15.4952 129.806Z" fill="#E0F6FF"/>
<path d="M55.9998 69H65.9998L66.9998 85H54.9998L55.9998 69Z" fill="#949494"/>
<circle cx="60.9998" cy="93" r="10" fill="#BCBCBC"/>
<path d="M37.9998 0H83.9998V0C83.9998 8.28427 77.284 15 68.9998 15H52.9998C44.7155 15 37.9998 8.28427 37.9998 0V0Z" fill="#BCBCBC"/>
</svg>
