<svg width="112" height="182" viewBox="0 0 112 182" fill="none" xmlns="http://www.w3.org/2000/svg">
<rect x="18.7842" y="5.16248" width="8" height="68" transform="rotate(-15 18.7842 5.16248)" fill="#E0F6FF"/>
<path d="M103.995 98.8749L48.9952 80.8749C38.1952 81.6749 41.4952 89.5415 44.4952 93.3749L97.4952 103.875L105.995 158.375L111.495 159.375L103.995 98.8749Z" fill="#E0F6FF"/>
<path d="M25.3384 144.288L37.2499 87.6561C43.3428 78.7031 48.5055 85.4943 50.3253 90.009L32.9185 141.158L75.8669 175.77L73.9829 181.033L25.3384 144.288Z" fill="#E0F6FF"/>
<path d="M35.418 71.1042L45.0772 68.516L50.1842 83.712L38.5931 86.8179L35.418 71.1042Z" fill="#949494"/>
<circle cx="46.3437" cy="89.6603" r="10" transform="rotate(-30 46.3437 89.6603)" fill="#BCBCBC"/>
<path d="M-0.000244141 0H45.9998V0C45.9998 8.28427 39.284 15 30.9998 15H14.9998C6.71548 15 -0.000244141 8.28427 -0.000244141 0V0Z" fill="#BCBCBC"/>
</svg>
