<svg width="112" height="182" viewBox="0 0 112 182" fill="none" xmlns="http://www.w3.org/2000/svg">
<rect width="8" height="68" transform="matrix(-0.965926 -0.258819 -0.258819 0.965926 92.7112 5.16248)" fill="#E0F6FF"/>
<path d="M7.50012 98.8749L62.5001 80.8749C73.3001 81.6749 70.0001 89.5415 67.0001 93.3749L14.0001 103.875L5.50012 158.375L0.000121663 159.375L7.50012 98.8749Z" fill="#E0F6FF"/>
<path d="M86.157 144.288L74.2454 87.6561C68.1526 78.7031 62.9899 85.4943 61.1701 90.009L78.5768 141.158L35.6284 175.77L37.5124 181.033L86.157 144.288Z" fill="#E0F6FF"/>
<path d="M76.0774 71.1042L66.4182 68.516L61.3111 83.712L72.9022 86.8179L76.0774 71.1042Z" fill="#949494"/>
<circle cx="10" cy="10" r="10" transform="matrix(-0.866025 -0.5 -0.5 0.866025 78.8119 86)" fill="#BCBCBC"/>
<path d="M111.496 0H65.4956V0C65.4956 8.28427 72.2113 15 80.4956 15H96.4956C104.78 15 111.496 8.28427 111.496 0V0Z" fill="#BCBCBC"/>
</svg>
