<svg width="122" height="188" viewBox="0 0 122 188" fill="none" xmlns="http://www.w3.org/2000/svg">
<rect width="8" height="68" transform="matrix(-0.998045 -0.062492 -0.062492 0.998045 74.9165 1.42493)" fill="#E0F6FF"/>
<path d="M14.5737 122.214L58.9563 85.0764C69.2811 81.8086 69.1384 90.3382 67.7765 95.0115L22.4657 124.442L34.8123 178.202L30.0769 181.173L14.5737 122.214Z" fill="#E0F6FF"/>
<path d="M104.47 135.169L72.3798 87.0111C63.3979 80.9609 61.1263 89.1837 61.1133 94.0513L96.2698 135.079L69.2456 183.164L72.9493 187.351L104.47 135.169Z" fill="#E0F6FF"/>
<path d="M71.6652 69.3545L61.6847 68.7296L59.6868 84.6358L71.6633 85.3857L71.6652 69.3545Z" fill="#949494"/>
<circle cx="10" cy="10" r="10" transform="matrix(-0.989774 -0.142644 -0.142644 0.989774 76.005 83.7777)" fill="#BCBCBC"/>
<path d="M93.4955 0H47.4955V0C47.4955 8.28427 54.2112 15 62.4955 15H78.4955C86.7798 15 93.4955 8.28427 93.4955 0V0Z" fill="#BCBCBC"/>
</svg>
