<svg width="162" height="121" viewBox="0 0 162 121" fill="none" xmlns="http://www.w3.org/2000/svg">
<rect y="31" width="162" height="90" fill="#D4181F"/>
<rect y="55" width="162" height="1" fill="black"/>
<path d="M13 20.5L0 31H161.5L148 20.5H13Z" fill="#F8AA9E"/>
<path d="M102 26H112V8.5C112 4.1 108.667 1 107 0H80V6.00004C85 5.83337 96 5.60004 100 6.00004C104 6.40004 106.333 10.5 107 12.5V22H102V26Z" fill="#A4A5A6"/>
<path d="M60 26H50V8.5C50 4.1 53.3333 1 55 0H82V6.00004C77 5.83337 66 5.60004 62 6.00004C58 6.40004 55.6667 10.5 55 12.5V22H60V26Z" fill="#A4A5A6"/>
</svg>
